<svg xmlns="http://www.w3.org/2000/svg" width="1200" height="630" viewBox="0 0 1200 630">
  <rect width="1200" height="630" fill="#efefec" />
  <g fill="#111111" font-family="Courier New, Courier, monospace">
    <text x="78" y="92" font-size="22">Fete Finder</text>
    <text x="78" y="124" font-size="22">Operations / Case study</text>
    <text x="78" y="156" font-size="22">owenabel.com/work/fete-finder-operations</text>

    <g font-size="22">
      <rect x="748" y="70" width="374" height="86" fill="none" stroke="#111111" stroke-width="1" />
      <text x="764" y="104">Document:      CASE-FF-OPS</text>
      <text x="764" y="134">Issued:        2025-26</text>
    </g>

    <text x="78" y="230" font-size="18">Current Practice</text>
    <line x1="78" y1="262" x2="1122" y2="262" stroke="#111111" stroke-width="1" />
    <text x="92" y="292" font-size="20">#</text>
    <text x="158" y="292" font-size="20">Area</text>
    <text x="458" y="292" font-size="20">Use</text>
    <line x1="78" y1="310" x2="1122" y2="310" stroke="#111111" stroke-width="1" />

    <text x="92" y="344" font-size="20">01</text>
    <text x="158" y="344" font-size="20">Runtime data</text>
    <text x="458" y="344" font-size="20">Back up and recover live records</text>

    <text x="92" y="390" font-size="20">02</text>
    <text x="158" y="390" font-size="20">Admin workflow</text>
    <text x="458" y="390" font-size="20">Make launch work explicit</text>

    <text x="92" y="436" font-size="20">03</text>
    <text x="158" y="436" font-size="20">Partner signal</text>
    <text x="458" y="436" font-size="20">Track placements without harming discovery</text>

    <line x1="78" y1="478" x2="1122" y2="478" stroke="#111111" stroke-width="1" />
    <line x1="78" y1="482" x2="1122" y2="482" stroke="#111111" stroke-width="1" />

    <text x="78" y="536" font-size="22">Method: Operate, recover, report</text>
    <text x="78" y="574" font-size="18">owenabel.com</text>
    <text x="960" y="574" font-size="18">Status: Case study</text>
  </g>
</svg>
